<svg width="65" height="65" viewBox="0 0 65 65" fill="none" xmlns="http://www.w3.org/2000/svg">
<path fill-rule="evenodd" clip-rule="evenodd" d="M43.0048 7.1416H53.1032V7.50489C51.2893 8.44812 50.2006 10.3346 50.2006 12.3662V14.3373L50.6616 14.7992H52.7067C54.6656 14.7991 56.5528 13.6379 57.4959 11.8967L57.8592 11.8976L57.8583 21.9958L65 29.1374L64.7439 29.3935C62.7943 28.7779 60.6902 29.3419 59.2536 30.7784L57.8583 32.1728V32.8263L59.3049 34.2728C60.6901 35.6576 62.8449 36.1698 64.7429 35.6055L65 35.8626L57.8583 43.0042V53.1033L57.495 53.1024C56.5517 51.2889 54.665 50.1999 52.6336 50.1998H50.6625L50.2006 50.6618V52.7069C50.2006 54.6659 51.3618 56.5528 53.1032 57.4961V57.8584H43.0048L35.8631 65L35.6061 64.7429C36.2217 62.7935 35.6576 60.6893 34.2212 59.2528L32.8268 57.8584H32.1732L30.7276 59.304C29.3426 60.6892 28.8296 62.8448 29.3939 64.7429L29.1369 65L21.9952 57.8584H11.8968V57.4961C13.7107 56.5529 14.7994 54.6663 14.7994 52.6348V50.6618L14.3375 50.1998H12.2924C10.3336 50.2 8.44629 51.3613 7.5031 53.1024H7.14075V43.0032L0 35.8626L0.257059 35.6055C2.20655 36.2211 4.30985 35.657 5.74637 34.2207L7.14075 32.8263V32.1728L5.69515 30.7272C4.30989 29.3421 2.1543 28.8292 0.256111 29.3935L0 29.1374L7.14075 21.9949L7.1417 11.8967H7.50405C8.44719 13.7104 10.3331 14.799 12.3645 14.7992H14.3384L14.7994 14.3373V12.2931C14.7993 10.3343 13.6381 8.44806 11.8968 7.50489V7.1416H21.9952L29.1369 0L29.3939 0.257056C28.7784 2.20653 29.3424 4.30981 30.7788 5.74629L32.1742 7.1416H32.8268L34.2724 5.69601C35.6576 4.31084 36.1703 2.15528 35.6061 0.257056L35.8631 0L43.0048 7.1416ZM36.0908 53.9409L38.0666 55.9167C40.7659 55.2017 43.216 53.7332 45.122 51.7014V50.1998H39.8319L36.0908 53.9409ZM19.878 52.9952C22.2921 54.398 25.0637 55.0912 27.8478 55.0023L28.9092 53.9409L25.1681 50.1998H19.878V52.9952ZM9.0815 38.067C9.79646 40.766 11.2663 43.2155 13.2978 45.1213H14.7994V39.8313L11.0583 36.0902L9.0815 38.067ZM50.2006 39.8313V45.1213H52.996C54.3986 42.7074 55.092 39.9364 55.0031 37.1526L53.9408 36.0902L50.2006 39.8313ZM19.878 27.2716V37.7284L27.2711 45.1213H37.7289L45.122 37.7284V27.2716L37.728 19.8777H27.272L19.878 27.2716ZM12.005 19.8777C10.6019 22.2919 9.90793 25.063 9.99686 27.8474L11.0583 28.9088L14.7994 25.1677V19.8777H12.005ZM50.2006 25.1677L53.9417 28.9088L55.9166 26.933C55.2015 24.234 53.7327 21.7835 51.7012 19.8777H50.2006V25.1677ZM37.1522 9.99766L36.0908 11.0581L39.8319 14.7992H45.122V12.0038C42.708 10.6011 39.9363 9.90871 37.1522 9.99766ZM26.9324 9.08232C24.2334 9.79743 21.7838 11.2672 19.878 13.2986V14.7992H25.1691L28.9083 11.0581L26.9324 9.08232Z" fill="url(#paint0_linear_19_230)"/>
<defs>
<linearGradient id="paint0_linear_19_230" x1="0" y1="32.5" x2="65" y2="32.5" gradientUnits="userSpaceOnUse">
<stop stop-color="#E6A968"/>
<stop offset="1" stop-color="#FFD6AA"/>
</linearGradient>
</defs>
</svg>
