<svg width="10" height="14" viewBox="0 0 10 14" fill="none" xmlns="http://www.w3.org/2000/svg">
<g id="Group 2">
<g id="Rectangle 7" filter="url(#filter0_f_1015_762)">
<path d="M6.62837 9.19912C6.75166 9.07583 6.82092 8.90861 6.82092 8.73424L6.82092 4.01945C6.82092 3.43375 6.11278 3.14042 5.69862 3.55458L3.72634 5.52686C3.60305 5.65015 3.53378 5.81737 3.53378 5.99174L3.53378 10.7065C3.53378 11.2922 4.24193 11.5856 4.65608 11.1714L6.62837 9.19912Z" fill="#E6E6E6"/>
</g>
<path id="Rectangle 8" d="M6.62837 9.19912C6.75166 9.07583 6.82092 8.90861 6.82092 8.73424L6.82092 4.01945C6.82092 3.43375 6.11278 3.14042 5.69862 3.55458L3.72634 5.52686C3.60305 5.65015 3.53378 5.81737 3.53378 5.99174L3.53378 10.7065C3.53378 11.2922 4.24193 11.5856 4.65608 11.1714L6.62837 9.19912Z" fill="#E6E6E6"/>
</g>
<defs>
<filter id="filter0_f_1015_762" x="0.904095" y="0.730877" width="8.54655" height="13.2641" filterUnits="userSpaceOnUse" color-interpolation-filters="sRGB">
<feFlood flood-opacity="0" result="BackgroundImageFix"/>
<feBlend mode="normal" in="SourceGraphic" in2="BackgroundImageFix" result="shape"/>
<feGaussianBlur stdDeviation="1.31486" result="effect1_foregroundBlur_1015_762"/>
</filter>
</defs>
</svg>
