<svg width="83" height="54" viewBox="0 0 83 54" fill="none" xmlns="http://www.w3.org/2000/svg">
<g id="Scale">
<path id="Rectangle 18" d="M80.6462 0.0388184L82.0392 15.769L80.7299 15.89L79.337 0.817244L80.6462 0.0388184Z" fill="#E6E6E6"/>
<path id="Rectangle 24" d="M70.7847 5.29834L71.0877 9.23501L69.7784 9.35601L69.4302 5.58787L70.7847 5.29834Z" fill="#E6E6E6"/>
<path id="Rectangle 25" d="M51.0618 14.6338L51.3648 18.5705L50.0555 18.6915L49.7073 14.9233L51.0618 14.6338Z" fill="#E6E6E6"/>
<path id="Rectangle 26" d="M31.3391 23.9692L31.6422 27.9059L30.3329 28.0269L29.9847 24.2588L31.3391 23.9692Z" fill="#E6E6E6"/>
<path id="Rectangle 27" d="M11.6162 33.3049L11.9193 37.2416L10.61 37.3626L10.2618 33.5945L11.6162 33.3049Z" fill="#E6E6E6"/>
<path id="Rectangle 19" d="M60.9233 9.63721L62.3163 25.3674L61.007 25.4884L59.6141 10.4156L60.9233 9.63721Z" fill="#E6E6E6"/>
<path id="Rectangle 20" d="M41.2004 18.9729L42.5934 34.7031L41.2841 34.8241L39.8912 19.7513L41.2004 18.9729Z" fill="#E6E6E6"/>
<path id="Rectangle 21" d="M21.4775 28.3083L22.8705 44.0385L21.5612 44.1595L20.1683 29.0868L21.4775 28.3083Z" fill="#E6E6E6"/>
<path id="Rectangle 22" d="M1.75488 37.6436L3.14783 53.3737L1.83856 53.4947L0.445606 38.422L1.75488 37.6436Z" fill="#E6E6E6"/>
</g>
</svg>
