<svg width="142" height="71" viewBox="0 0 142 71" fill="none" xmlns="http://www.w3.org/2000/svg">
<g id="scale">
<path id="Rectangle 18" d="M139.646 70.4358L141.039 54.7056L139.73 54.5846L138.337 69.6574L139.646 70.4358Z" fill="#E6E6E6"/>
<path id="Rectangle 34" d="M119.923 60.9033L121.316 45.1731L120.007 45.0521L118.614 60.1249L119.923 60.9033Z" fill="#E6E6E6"/>
<path id="Rectangle 24" d="M129.785 65.1765L130.088 61.2398L128.779 61.1188L128.43 64.887L129.785 65.1765Z" fill="#E6E6E6"/>
<path id="Rectangle 25" d="M110.062 55.8413L110.365 51.9046L109.056 51.7836L108.707 55.5518L110.062 55.8413Z" fill="#E6E6E6"/>
<path id="Rectangle 26" d="M90.3391 46.5056L90.6422 42.5689L89.3329 42.4479L88.9847 46.2161L90.3391 46.5056Z" fill="#E6E6E6"/>
<path id="Rectangle 27" d="M70.6162 37.1707L70.9193 33.234L69.61 33.113L69.2618 36.8811L70.6162 37.1707Z" fill="#E6E6E6"/>
<path id="Rectangle 31" d="M50.8933 27.8345L51.1964 23.8978L49.8871 23.7768L49.5389 27.5449L50.8933 27.8345Z" fill="#E6E6E6"/>
<path id="Rectangle 32" d="M31.1705 18.499L31.4736 14.5624L30.1643 14.4414L29.8161 18.2095L31.1705 18.499Z" fill="#E6E6E6"/>
<path id="Rectangle 33" d="M11.4475 22.1576L11.7505 18.2209L10.4412 18.0999L10.093 23.1829L11.4475 22.1576Z" fill="#E6E6E6"/>
<path id="Rectangle 20" d="M100.2 51.5022L101.593 35.772L100.284 35.651L98.8912 50.7238L100.2 51.5022Z" fill="#E6E6E6"/>
<path id="Rectangle 21" d="M80.4775 42.1665L81.8705 26.4363L80.5612 26.3153L79.1683 41.3881L80.4775 42.1665Z" fill="#E6E6E6"/>
<path id="Rectangle 22" d="M60.7546 32.8311L62.1476 17.1009L60.8383 16.9799L59.4454 32.0526L60.7546 32.8311Z" fill="#E6E6E6"/>
<path id="Rectangle 28" d="M41.0319 23.4954L42.4248 7.76517L41.1155 7.64417L39.7226 22.7169L41.0319 23.4954Z" fill="#E6E6E6"/>
<path id="Rectangle 29" d="M21.309 16.1377L22.702 0.407497L21.3927 0.2865L19.9997 16.6741L21.309 16.1377Z" fill="#E6E6E6"/>
<path id="Rectangle 30" d="M1.58618 30.6721L2.97913 14.9419L1.66986 14.8209L0.276905 31.866L1.58618 30.6721Z" fill="#E6E6E6"/>
</g>
</svg>
