<svg width="21" height="22" viewBox="0 0 21 22" fill="none" xmlns="http://www.w3.org/2000/svg">
<g id="Speed">
<path id="Subtract" d="M17.9722 9.36255C17.9722 10.53 17.7489 11.6309 17.3022 12.6643C16.8556 13.6976 16.2388 14.6082 15.4517 15.3958C14.6644 16.1834 13.7552 16.8005 12.7251 17.2473C11.6952 17.6941 10.5969 17.9172 9.43018 17.9172C9.42865 17.9172 9.42682 17.9172 9.42529 17.9172L9.42529 16.4934C9.42682 16.4934 9.42865 16.4934 9.43018 16.4934C10.4183 16.4934 11.342 16.3083 12.2017 15.9397C13.0615 15.571 13.818 15.0601 14.4712 14.4065C15.1244 13.7529 15.6338 12.9962 15.9995 12.136C16.3652 11.2757 16.5483 10.3513 16.5483 9.36255C16.5483 8.37387 16.3652 7.44933 15.9995 6.58911C15.6338 5.72897 15.1244 4.97433 14.4712 4.32642C13.818 3.67864 13.0613 3.17171 12.2017 2.80591C11.342 2.44015 10.4182 2.25712 9.43018 2.25708C8.44193 2.25708 7.51752 2.44003 6.65771 2.80591C5.7979 3.17179 5.04254 3.68053 4.39209 4.3313C3.74175 4.98201 3.2322 5.73776 2.86377 6.5979C2.49547 7.45785 2.31209 8.38202 2.31201 9.37036L0.888183 9.37036C0.888267 8.20313 1.11052 7.10391 1.55713 6.07349C2.00375 5.04297 2.62149 4.13449 3.40869 3.34692C4.1959 2.5593 5.10414 1.94126 6.13428 1.49438C7.16434 1.04753 8.26328 0.824462 9.43018 0.824463C10.5968 0.824501 11.6952 1.04766 12.7251 1.49438C13.7552 1.94126 14.6644 2.55723 15.4517 3.34204C16.2389 4.12687 16.8556 5.03506 17.3022 6.06567C17.7489 7.09623 17.9722 8.19516 17.9722 9.36255ZM6.88428 5.97778C6.88422 6.20667 6.80292 6.40068 6.64111 6.55981C6.4792 6.71901 6.2863 6.79907 6.06299 6.79907C5.83975 6.79903 5.64562 6.71897 5.48096 6.55981C5.31638 6.40069 5.23395 6.20664 5.23389 5.97778C5.23389 5.75444 5.3164 5.5616 5.48096 5.39966C5.64562 5.23771 5.83975 5.15654 6.06299 5.15649C6.2863 5.15649 6.4792 5.23767 6.64111 5.39966C6.80291 5.56161 6.88428 5.75442 6.88428 5.97778ZM13.6304 13.3088C13.5885 13.4316 13.5059 13.516 13.3833 13.5608C13.2605 13.6055 13.1284 13.5774 12.9888 13.4768L8.4165 10.2004C8.1541 10.0105 7.96437 9.78972 7.84717 9.53833C7.72998 9.28708 7.69319 9.03027 7.73779 8.76782C7.78244 8.50532 7.91682 8.25952 8.14014 8.03052C8.369 7.80708 8.61613 7.67175 8.88135 7.62427C9.14657 7.57679 9.40661 7.61145 9.66064 7.72876C9.91447 7.84605 10.1337 8.03576 10.3179 8.2981L13.5503 12.9153C13.6451 13.0547 13.672 13.186 13.6304 13.3088ZM10.2505 4.53638C10.2505 4.76539 10.1713 4.9613 10.0122 5.12329C9.85317 5.28516 9.65892 5.36541 9.43018 5.36548C9.20694 5.36548 9.01391 5.28512 8.85205 5.12329C8.69014 4.9613 8.60889 4.76539 8.60889 4.53638C8.60889 4.31294 8.69014 4.12025 8.85205 3.95825C9.01396 3.79626 9.20683 3.71509 9.43018 3.71509C9.65896 3.71516 9.85315 3.79633 10.0122 3.95825C10.1712 4.12021 10.2505 4.31302 10.2505 4.53638ZM13.6177 5.96118C13.6176 6.19003 13.5375 6.38411 13.3784 6.54321C13.2193 6.70231 13.0252 6.78149 12.7964 6.78149C12.5731 6.78145 12.3801 6.70237 12.2183 6.54321C12.0566 6.38414 11.9762 6.18994 11.9761 5.96118C11.9761 5.73794 12.0566 5.54496 12.2183 5.38306C12.3801 5.22111 12.5731 5.13994 12.7964 5.13989C13.0253 5.13989 13.2193 5.22106 13.3784 5.38306C13.5375 5.54503 13.6177 5.73779 13.6177 5.96118ZM15.1001 9.36255C15.1001 9.58594 15.0188 9.77871 14.8569 9.94067C14.6951 10.1026 14.4997 10.1837 14.271 10.1838C14.0477 10.1838 13.8548 10.1026 13.6929 9.94067C13.531 9.77868 13.4497 9.58599 13.4497 9.36255C13.4497 9.13357 13.531 8.93969 13.6929 8.78052C13.8548 8.62132 14.0477 8.54126 14.271 8.54126C14.4997 8.54136 14.6951 8.62142 14.8569 8.78052C15.0187 8.93967 15.1001 9.13364 15.1001 9.36255Z" fill="#E6E6E6"/>
<path id="Vector 5" d="M7.45325 12.0007L4.8595 13.7299C4.63867 13.8771 4.35097 13.8771 4.13014 13.7299L1.53639 12.0007" stroke="#E6E6E6" stroke-width="1.31486" stroke-linecap="round"/>
<path id="Vector 6" d="M7.45325 15.2876L4.8595 17.0168C4.63867 17.164 4.35097 17.164 4.13014 17.0168L1.53639 15.2876" stroke="#E6E6E6" stroke-width="1.31486" stroke-linecap="round"/>
<path id="Vector 7" d="M7.45325 18.5747L4.8595 20.3039C4.63867 20.4511 4.35097 20.4511 4.13014 20.3039L1.53639 18.5747" stroke="#E6E6E6" stroke-width="1.31486" stroke-linecap="round"/>
<path id="Vector 8" d="M16.6573 19.2322L16.6573 16.6025M16.6573 16.6025L19.287 16.6025M16.6573 16.6025L19.9445 19.8896" stroke="#E6E6E6" stroke-width="1.31486" stroke-linecap="round"/>
</g>
</svg>
