<svg width="12" height="61" viewBox="0 0 12 61" fill="none" xmlns="http://www.w3.org/2000/svg">
<g id="Status">
<g id="Group 13" filter="url(#filter0_f_1015_735)">
<path id="Rectangle 36" d="M8.08232 4.2481C8.33892 4.34433 8.50891 4.58963 8.50891 4.86367L8.50891 11.3485C8.50891 11.8076 8.05044 12.1253 7.62064 11.9641L3.67608 10.4849C3.41948 10.3887 3.24949 10.1434 3.24949 9.86933L3.24949 3.38446C3.24949 2.92544 3.70796 2.60772 4.13775 2.76889L8.08232 4.2481Z" fill="url(#paint0_linear_1015_735)"/>
<path id="Rectangle 37" d="M8.08232 13.4529C8.33892 13.5492 8.50891 13.7945 8.50891 14.0685L8.50891 20.5534C8.50891 21.0124 8.05044 21.3301 7.62064 21.1689L3.67608 19.6897C3.41948 19.5935 3.24949 19.3482 3.24949 19.0742L3.24949 12.5893C3.24949 12.1303 3.70796 11.8126 4.13775 11.9737L8.08232 13.4529Z" fill="url(#paint1_linear_1015_735)"/>
<path id="Rectangle 38" d="M8.08232 22.6566C8.33892 22.7528 8.50891 22.9981 8.50891 23.2721L8.50891 29.757C8.50891 30.216 8.05044 30.5337 7.62064 30.3726L3.67608 28.8933C3.41948 28.7971 3.24949 28.5518 3.24949 28.2778L3.24949 21.7929C3.24949 21.3339 3.70796 21.0162 4.13775 21.1773L8.08232 22.6566Z" fill="url(#paint2_linear_1015_735)"/>
<path id="Rectangle 39" d="M8.08232 31.8604C8.33892 31.9566 8.50891 32.2019 8.50891 32.476L8.50891 38.9608C8.50891 39.4199 8.05044 39.7376 7.62064 39.5764L3.67608 38.0972C3.41948 38.001 3.24949 37.7557 3.24949 37.4816L3.24949 30.9968C3.24949 30.5377 3.70796 30.22 4.13775 30.3812L8.08232 31.8604Z" fill="url(#paint3_linear_1015_735)"/>
<path id="Rectangle 40" d="M8.08232 41.0643C8.33892 41.1605 8.50891 41.4058 8.50891 41.6798L8.50891 48.1647C8.50891 48.6237 8.05044 48.9414 7.62064 48.7803L3.67608 47.3011C3.41948 47.2048 3.24949 46.9595 3.24949 46.6855L3.24949 40.2006C3.24949 39.7416 3.70796 39.4239 4.13775 39.5851L8.08232 41.0643Z" fill="url(#paint4_linear_1015_735)"/>
<path id="Rectangle 41" d="M4.90305 50.3162C4.96723 50.3885 5.00269 50.4817 5.00269 50.5783L5.00269 57.28C5.00269 57.6427 4.55438 57.8131 4.31341 57.542L3.34918 56.4573C3.285 56.3851 3.24954 56.2918 3.24954 56.1952L3.24954 49.4936C3.24954 49.1308 3.69785 48.9604 3.93882 49.2315L4.90305 50.3162Z" fill="url(#paint5_linear_1015_735)"/>
</g>
<g id="Status_2">
<path id="Rectangle 36_2" d="M8.08232 4.2481C8.33892 4.34433 8.50891 4.58963 8.50891 4.86367L8.50891 11.3485C8.50891 11.8076 8.05044 12.1253 7.62064 11.9641L3.67608 10.4849C3.41948 10.3887 3.24949 10.1434 3.24949 9.86933L3.24949 3.38446C3.24949 2.92544 3.70796 2.60772 4.13775 2.76889L8.08232 4.2481Z" fill="#7AD9E0"/>
<path id="Rectangle 37_2" d="M8.08232 13.4529C8.33892 13.5492 8.50891 13.7945 8.50891 14.0685L8.50891 20.5534C8.50891 21.0124 8.05044 21.3301 7.62064 21.1689L3.67608 19.6897C3.41948 19.5935 3.24949 19.3482 3.24949 19.0742L3.24949 12.5893C3.24949 12.1303 3.70796 11.8126 4.13775 11.9737L8.08232 13.4529Z" fill="#7AD9E0"/>
<path id="Rectangle 38_2" d="M8.08232 22.6566C8.33892 22.7528 8.50891 22.9981 8.50891 23.2721L8.50891 29.757C8.50891 30.216 8.05044 30.5337 7.62064 30.3726L3.67608 28.8933C3.41948 28.7971 3.24949 28.5518 3.24949 28.2778L3.24949 21.7929C3.24949 21.3339 3.70796 21.0162 4.13775 21.1773L8.08232 22.6566Z" fill="#7AD9E0"/>
<path id="Rectangle 39_2" d="M8.08232 31.8604C8.33892 31.9566 8.50891 32.2019 8.50891 32.476L8.50891 38.9608C8.50891 39.4199 8.05044 39.7376 7.62064 39.5764L3.67608 38.0972C3.41948 38.001 3.24949 37.7557 3.24949 37.4816L3.24949 30.9968C3.24949 30.5377 3.70796 30.22 4.13775 30.3812L8.08232 31.8604Z" fill="#7AD9E0"/>
<path id="Rectangle 40_2" d="M8.08232 41.0643C8.33892 41.1605 8.50891 41.4058 8.50891 41.6798L8.50891 48.1647C8.50891 48.6237 8.05044 48.9414 7.62064 48.7803L3.67608 47.3011C3.41948 47.2048 3.24949 46.9595 3.24949 46.6855L3.24949 40.2006C3.24949 39.7416 3.70796 39.4239 4.13775 39.5851L8.08232 41.0643Z" fill="#7AD9E0"/>
<path id="Rectangle 41_2" d="M4.90305 50.3162C4.96723 50.3885 5.00269 50.4817 5.00269 50.5783L5.00269 57.28C5.00269 57.6427 4.55438 57.8131 4.31341 57.542L3.34918 56.4573C3.285 56.3851 3.24954 56.2918 3.24954 56.1952L3.24954 49.4936C3.24954 49.1308 3.69785 48.9604 3.93882 49.2315L4.90305 50.3162Z" fill="#7AD9E0"/>
</g>
</g>
<defs>
<filter id="filter0_f_1015_735" x="0.619793" y="0.0965996" width="10.5188" height="60.2084" filterUnits="userSpaceOnUse" color-interpolation-filters="sRGB">
<feFlood flood-opacity="0" result="BackgroundImageFix"/>
<feBlend mode="normal" in="SourceGraphic" in2="BackgroundImageFix" result="shape"/>
<feGaussianBlur stdDeviation="1.31486" result="effect1_foregroundBlur_1015_735"/>
</filter>
<linearGradient id="paint0_linear_1015_735" x1="5.8792" y1="12.2972" x2="5.8792" y2="2.43579" gradientUnits="userSpaceOnUse">
<stop stop-color="#174486"/>
<stop offset="1" stop-color="#7AD9E0"/>
</linearGradient>
<linearGradient id="paint1_linear_1015_735" x1="5.8792" y1="21.502" x2="5.8792" y2="11.6406" gradientUnits="userSpaceOnUse">
<stop stop-color="#174486"/>
<stop offset="1" stop-color="#7AD9E0"/>
</linearGradient>
<linearGradient id="paint2_linear_1015_735" x1="5.8792" y1="30.7057" x2="5.8792" y2="20.8442" gradientUnits="userSpaceOnUse">
<stop stop-color="#174486"/>
<stop offset="1" stop-color="#7AD9E0"/>
</linearGradient>
<linearGradient id="paint3_linear_1015_735" x1="5.8792" y1="39.9095" x2="5.8792" y2="30.0481" gradientUnits="userSpaceOnUse">
<stop stop-color="#174486"/>
<stop offset="1" stop-color="#7AD9E0"/>
</linearGradient>
<linearGradient id="paint4_linear_1015_735" x1="5.8792" y1="49.1134" x2="5.8792" y2="39.252" gradientUnits="userSpaceOnUse">
<stop stop-color="#174486"/>
<stop offset="1" stop-color="#7AD9E0"/>
</linearGradient>
<linearGradient id="paint5_linear_1015_735" x1="4.12611" y1="58.3175" x2="4.12612" y2="48.4561" gradientUnits="userSpaceOnUse">
<stop stop-color="#174486"/>
<stop offset="1" stop-color="#7AD9E0"/>
</linearGradient>
</defs>
</svg>
