<svg width="19" height="20" viewBox="0 0 19 20" fill="none" xmlns="http://www.w3.org/2000/svg">
<path id="Vector 4" d="M0.934207 0.983398L0.934207 2.85465M0.934207 13.3984L0.934207 11.5272M0.934207 11.5272L0.934207 2.85465M0.934207 11.5272L9.3557 11.5272M0.934207 2.85465L11.5236 2.85465M11.5236 2.85465L16.6862 2.85465C17.0493 2.85465 17.3436 3.14899 17.3436 3.51208L17.3436 10.8697C17.3436 11.2328 17.0493 11.5272 16.6862 11.5272L11.5236 11.5272M11.5236 2.85465L11.5236 11.5272M11.5236 11.5272L9.3557 11.5272M9.3557 11.5272V11.5272C9.3557 12.819 8.30847 13.8662 7.01664 13.8662L4.68636 13.8662C3.91272 13.8662 3.28556 14.4934 3.28556 15.267L3.28556 15.3645C3.28556 16.1919 3.95634 16.8627 4.7838 16.8627L11.9572 16.8627M11.9572 16.8627V16.8627C11.9572 17.8962 12.795 18.734 13.8284 18.734L15.5181 18.734L15.5181 18.3921M11.9572 16.8627V16.8627C11.9572 15.8293 12.795 14.9915 13.8284 14.9915L15.5181 14.9915L15.5181 15.582M18.0273 18.3921L15.5181 18.3921M15.5181 18.3921L15.5181 15.582M18.0273 15.582L15.5181 15.582" stroke="#E6E6E6" stroke-width="1.31486" stroke-linejoin="round"/>
</svg>
